# This file uses centimeters as units for non-parametric coordinates.
o left_diagonal_straight
v 1.000000 -0.000000 1.000000
v 1.000000 0.419943 1.000000
v -0.000000 0.000000 -1.000000
v -0.000000 0.419943 -1.000000
v -0.000000 0.419943 -0.499950
v 0.014860 0.419943 -0.311136
v 0.059074 0.419943 -0.126971
v 0.131554 0.419943 0.048010
v 0.230515 0.419943 0.209499
v 0.353518 0.419943 0.353518
v 0.353518 -0.000000 0.353518
v 0.230515 -0.000000 0.209499
v 0.131554 -0.000000 0.048010
v 0.059074 -0.000000 -0.126971
v 0.014860 -0.000000 -0.311136
v -0.000000 0.000000 -0.499950
vt 0.675161 0.505229
vt 0.995477 0.505229
vt 0.995477 0.996420
vt 0.252286 0.996420
vt 0.004522 0.996421
vt 0.004522 0.505229
vt 0.607413 0.996420
vt 0.536675 0.996421
vt 0.500000 0.996420
vt 0.433892 0.996420
vt 0.348094 0.505229
vt 0.448134 0.505229
vt 0.344568 0.996421
vt 0.252286 0.505229
vt 0.675161 0.996420
vt 0.610940 0.505229
vt 0.550917 0.505229
vt 0.500000 0.505229
vn -0.734324 0.000000 0.678800
vn -0.734323 0.000000 0.678800
vn -0.707107 0.000000 0.707106
vn -0.707107 0.000000 0.707106
vn -0.999229 0.000000 0.039260
vn -0.999229 0.000000 0.039260
vn -1.000000 0.000000 0.000000
vn -1.000000 0.000000 0.000000
vn -0.793324 0.000000 0.608800
vn -0.824152 0.000000 0.566369
vn -0.878794 0.000000 0.477202
vn -0.902606 0.000000 0.430468
vn -0.942626 0.000000 0.333851
vn -0.958833 0.000000 0.283969
vn -0.983246 0.000000 0.182284
vn -0.991451 0.000000 0.130479
f 10/15/1 11/1/2 2/3/3
f 2/3/3 11/1/2 1/2/4
f 16/14/5 5/4/6 3/6/7
f 3/6/7 5/4/6 4/5/8
f 10/15/1 9/7/9 11/1/2
f 11/1/2 9/7/9 12/16/10
f 9/7/9 8/8/11 12/16/10
f 12/16/10 8/8/11 13/17/12
f 8/8/11 7/9/13 13/17/12
f 13/17/12 7/9/13 14/18/14
f 7/10/13 6/13/15 14/12/14
f 14/12/14 6/13/15 15/11/16
f 6/13/15 5/4/6 15/11/16
f 15/11/16 5/4/6 16/14/5
